<?xml version="1.0" standalone="no"?>
<!DOCTYPE svg PUBLIC "-//W3C//DTD SVG 20010904//EN"
 "http://www.w3.org/TR/2001/REC-SVG-20010904/DTD/svg10.dtd">
<svg version="1.0" xmlns="http://www.w3.org/2000/svg"
 width="464.000000pt" height="514.000000pt" viewBox="0 0 464.000000 514.000000"
 preserveAspectRatio="xMidYMid meet">
<metadata>
Created by potrace 1.15, written by Peter Selinger 2001-2017
</metadata>
<g transform="translate(0.000000,514.000000) scale(0.100000,-0.100000)"
fill="#000000" stroke="none">
<path d="M4277 5120 c-3 -13 0 -20 9 -20 8 0 14 -7 14 -15 0 -8 -4 -15 -10
-15 -5 0 -10 5 -10 10 0 6 -5 10 -11 10 -6 0 -8 -9 -4 -21 13 -39 -16 -54 -99
-54 -70 0 -74 -1 -59 -17 9 -10 18 -16 22 -14 3 2 7 -12 8 -32 1 -21 -1 -31
-4 -24 -8 19 -21 14 -26 -10 -2 -13 -4 -6 -4 15 0 21 -4 42 -9 47 -7 7 -9 -2
-8 -23 1 -17 -1 -22 -3 -9 -2 12 -8 22 -13 22 -5 0 -7 8 -4 18 5 16 5 16 -9 0
-8 -10 -20 -18 -26 -18 -7 0 -9 -4 -6 -10 3 -5 15 -10 26 -10 14 0 19 -7 19
-25 0 -14 5 -25 11 -25 8 0 8 -5 -1 -15 -7 -8 -10 -22 -6 -30 3 -8 1 -15 -4
-15 -6 0 -10 5 -10 10 0 17 -29 11 -39 -8 -7 -13 -6 -23 1 -30 9 -9 8 -12 -5
-12 -9 0 -17 6 -17 13 0 8 -3 8 -9 -2 -5 -8 -7 -20 -4 -28 3 -7 -1 -13 -9 -13
-11 0 -13 13 -10 60 4 56 3 60 -14 53 -26 -9 -66 -38 -41 -30 10 4 17 1 17 -6
0 -8 3 -8 9 2 14 22 21 -4 8 -33 -13 -29 -32 -34 -41 -10 -3 8 -10 12 -16 9
-7 -4 -7 -12 0 -25 13 -25 13 -30 -5 -30 -9 0 -12 -6 -9 -15 8 -20 33 -19 56
2 17 15 18 15 18 0 0 -10 -7 -17 -15 -17 -8 0 -15 -3 -15 -7 0 -12 -54 -40
-68 -35 -22 7 -13 20 11 14 19 -5 20 -3 9 10 -12 16 -56 18 -69 4 -4 -4 -2
-16 5 -26 16 -27 16 -28 -14 -22 -16 3 -29 -1 -34 -8 -7 -11 -11 -11 -24 -1
-8 7 -19 10 -24 7 -13 -8 -36 49 -28 69 4 12 -2 15 -32 14 -24 -1 -29 -3 -14
-6 13 -3 27 -16 33 -30 5 -14 8 -26 7 -27 -55 -29 -103 -42 -93 -25 4 5 14 9
23 9 31 0 -10 27 -50 33 -29 4 -38 2 -38 -9 0 -8 5 -13 11 -11 7 1 13 -18 14
-50 2 -29 -1 -53 -6 -53 -5 0 -9 12 -10 28 0 15 -3 21 -6 15 -2 -7 -13 -13
-23 -13 -11 0 -23 -7 -27 -15 -7 -11 -18 -14 -41 -9 -34 7 -43 28 -16 38 8 3
12 11 8 17 -3 6 -1 15 6 19 8 5 7 9 -4 13 -10 4 -16 1 -16 -8 0 -23 -50 -75
-66 -68 -10 4 -17 -2 -21 -16 -3 -11 -9 -18 -15 -15 -5 3 -15 1 -22 -5 -10 -8
-17 -7 -27 6 -12 15 -12 16 3 10 11 -4 22 2 32 18 21 32 21 52 1 35 -8 -7 -15
-20 -15 -29 0 -14 -2 -14 -10 -1 -7 12 -12 12 -21 3 -10 -10 -10 -18 1 -38 10
-19 19 -23 39 -19 20 4 23 3 11 -5 -13 -9 -13 -11 2 -11 19 0 78 32 78 43 0 4
5 7 10 7 19 0 10 -37 -12 -48 l-23 -11 23 0 c13 -1 22 -7 22 -16 0 -18 -17
-20 -22 -3 -2 6 -12 9 -21 5 -31 -12 -18 -24 26 -24 27 1 41 -3 40 -11 -2 -6
8 -14 22 -18 27 -7 34 -24 10 -24 -12 0 -13 -3 -3 -19 7 -11 20 -22 30 -24 23
-6 23 -27 1 -27 -12 -1 -4 -9 19 -24 21 -12 35 -26 30 -30 -4 -4 2 -14 12 -22
17 -12 18 -17 6 -38 -10 -20 -10 -31 -1 -53 12 -28 79 -83 101 -83 6 0 9 -4 6
-9 -3 -4 -17 -6 -31 -3 -14 2 -25 2 -25 0 0 -14 82 -88 97 -88 15 0 13 -3 -7
-18 -17 -11 -24 -24 -22 -39 3 -21 0 -22 -28 -16 -30 6 -32 5 -21 -15 6 -11
15 -23 20 -27 6 -3 6 -18 0 -37 -6 -23 -5 -40 5 -59 12 -24 12 -28 -1 -33 -11
-5 -11 -10 -3 -26 22 -41 -25 -66 -62 -33 -11 9 -18 11 -18 5 0 -7 -4 -12 -9
-12 -9 0 -21 83 -21 150 0 39 -18 74 -27 53 -7 -18 -23 -16 -23 2 0 8 -6 15
-14 15 -9 0 -12 7 -9 19 3 11 -2 33 -10 50 -13 27 -13 29 2 24 9 -3 23 -12 32
-20 14 -12 17 -12 23 2 8 21 8 25 -1 24 -5 -1 -15 -1 -23 0 -13 1 -13 2 0 12
12 8 11 9 -5 5 -11 -3 -32 1 -47 9 -25 12 -28 12 -28 -1 0 -8 -4 -12 -10 -9
-5 3 -10 17 -10 31 0 13 -5 24 -11 24 -16 0 -38 31 -39 54 0 12 -5 16 -15 13
-8 -4 -17 -1 -21 5 -4 7 -9 6 -15 -3 -8 -12 -11 -12 -18 1 -7 10 -6 17 2 22 7
4 7 8 2 8 -6 0 -19 14 -29 30 -9 17 -23 29 -29 28 -7 -1 -27 12 -45 30 -35 35
-48 39 -55 20 -4 -9 -8 -10 -14 -2 -4 6 -15 13 -24 17 -24 8 -32 -59 -11 -95
17 -29 12 -45 -10 -32 -7 5 -21 7 -31 6 -9 -2 -20 5 -24 15 -9 23 -28 43 -42
43 -6 0 -20 -9 -31 -20 -17 -17 -24 -18 -45 -8 -21 10 -27 8 -39 -7 -9 -12
-18 -15 -27 -9 -8 4 -32 9 -54 9 -22 1 -48 4 -57 9 -13 6 -19 2 -24 -21 -8
-27 -8 -28 -14 -4 -4 19 -13 24 -43 26 -21 1 -42 6 -48 12 -6 6 -29 7 -54 3
-24 -4 -42 -3 -39 2 7 11 -7 10 -25 -1 -11 -7 -9 -10 7 -15 11 -4 23 -14 26
-23 6 -15 5 -15 -44 -1 -8 3 -12 3 -7 1 4 -3 7 -13 7 -23 0 -10 7 -20 15 -24
13 -5 13 -8 -2 -26 -41 -48 -72 -13 -69 79 2 52 1 54 -31 67 -22 10 -47 12
-75 7 -38 -6 -40 -7 -18 -14 23 -6 23 -7 -7 -8 -40 -1 -45 25 -8 39 28 11 32
25 11 46 -20 20 -42 18 -66 -6 -11 -11 -25 -20 -30 -20 -6 0 -27 -18 -49 -40
-21 -22 -43 -40 -48 -40 -6 0 -28 -13 -50 -29 -37 -26 -81 -99 -98 -158 -4
-13 -13 -23 -20 -23 -12 0 -12 -4 0 -27 14 -26 13 -29 -19 -55 -38 -31 -40
-57 -6 -93 19 -21 21 -25 7 -25 -11 0 -17 -8 -17 -24 0 -14 -5 -28 -10 -31 -6
-4 -8 -9 -6 -13 11 -18 15 -121 5 -127 -6 -5 -8 -17 -3 -34 4 -14 8 -52 8 -84
1 -43 6 -61 18 -68 10 -5 14 -17 11 -29 -3 -13 1 -22 12 -26 11 -5 16 -17 15
-43 -6 -131 7 -115 25 31 8 63 19 127 25 142 6 16 12 73 14 127 2 68 8 105 19
122 8 13 19 41 23 63 4 21 11 43 16 49 5 5 18 24 28 42 16 28 28 33 97 49 43
9 81 21 85 27 4 7 28 7 74 -1 37 -6 71 -9 76 -6 4 3 7 -5 5 -18 -1 -18 2 -22
18 -20 11 2 23 9 27 15 4 7 15 5 32 -7 26 -16 52 -14 41 5 -4 5 -1 9 4 9 6 0
11 -7 11 -15 0 -11 11 -15 42 -15 38 0 47 -5 104 -65 34 -36 57 -66 50 -69 -6
-2 1 -5 16 -5 28 -1 51 -21 24 -21 -35 0 -14 -28 25 -34 22 -4 51 -14 65 -22
20 -14 22 -19 12 -32 -7 -9 -8 -13 -2 -10 5 4 22 -6 37 -21 24 -26 25 -31 15
-65 -7 -21 -21 -42 -32 -48 -12 -6 -36 -26 -55 -45 -27 -28 -31 -37 -20 -44
11 -7 11 -9 -3 -9 -9 0 -18 5 -20 12 -3 7 -10 8 -17 4 -11 -7 -11 -10 0 -17
11 -7 10 -9 -3 -9 -10 0 -18 -6 -18 -14 0 -13 -40 -46 -56 -46 -3 0 -4 11 -1
25 4 25 4 25 -17 8 -11 -10 -22 -18 -24 -19 -1 -1 2 -13 7 -28 7 -17 7 -26 1
-26 -6 0 -10 7 -10 15 0 8 -4 15 -10 15 -5 0 -10 7 -10 15 0 10 -10 15 -30 15
-23 0 -30 4 -30 20 0 26 -27 37 -52 21 -15 -9 -20 -9 -24 4 -3 8 -10 13 -15
10 -4 -3 -24 1 -44 9 -31 13 -40 13 -76 1 -23 -8 -59 -15 -80 -15 -21 0 -40
-4 -43 -9 -8 -12 -96 -35 -123 -33 -14 2 -26 -5 -33 -19 -7 -11 -10 -22 -8
-23 42 -28 69 -39 125 -51 38 -9 75 -18 83 -21 8 -4 58 -7 110 -8 53 -1 101
-5 108 -10 7 -4 12 -3 12 2 0 5 17 15 39 22 59 19 108 0 117 -46 3 -18 3 -46
-2 -61 -4 -16 -9 -75 -9 -133 -2 -98 -14 -172 -35 -212 -5 -9 -6 -36 -2 -60 4
-24 7 -73 5 -110 -3 -79 10 -90 64 -57 29 18 34 26 29 48 -12 56 -18 120 -12
136 5 15 8 15 21 1 12 -11 14 -31 10 -86 -5 -82 5 -103 42 -86 12 6 23 19 23
29 0 27 34 17 38 -11 6 -38 -14 -52 -66 -46 -42 5 -53 1 -102 -30 -60 -40 -70
-41 -133 -24 -42 11 -46 10 -73 -15 -16 -15 -32 -27 -36 -27 -3 0 -14 -7 -22
-16 -10 -10 -16 -11 -16 -3 0 16 -67 4 -91 -17 -10 -9 -15 -22 -12 -30 3 -7
-7 -28 -21 -45 -32 -37 -32 -48 -3 -76 22 -20 26 -21 51 -7 40 20 71 18 122
-11 25 -14 50 -23 55 -19 5 3 24 -8 42 -26 26 -26 29 -33 17 -40 -8 -5 -25
-10 -38 -10 -12 0 -26 -8 -29 -17 -4 -9 -15 -25 -25 -35 -21 -21 -16 -40 7
-31 22 8 19 -36 -2 -53 -26 -19 -27 -19 -61 35 -18 27 -39 51 -47 55 -8 3 -15
12 -15 20 0 8 -7 27 -14 43 -8 15 -18 37 -21 47 -5 18 -8 17 -34 -11 -15 -17
-37 -34 -49 -37 -12 -4 -22 -12 -22 -17 0 -22 -89 49 -120 96 l-18 27 -6 -29
c-4 -16 -18 -41 -32 -56 -14 -15 -32 -44 -40 -65 -25 -61 -38 -86 -56 -102 -9
-9 -19 -39 -23 -73 l-7 -59 34 7 c49 11 148 66 148 82 0 8 9 36 21 62 11 27
21 56 23 64 1 9 5 19 8 23 9 8 185 -170 228 -230 32 -44 65 -73 110 -92 26
-12 50 -36 44 -45 -3 -5 2 -9 10 -9 9 0 16 -9 16 -20 0 -11 -6 -20 -12 -20 -9
0 -8 -4 2 -10 13 -8 10 -14 -15 -38 -34 -32 -36 -38 -36 -107 0 -54 41 -165
60 -165 6 0 11 -6 11 -14 0 -12 9 -10 46 7 39 19 45 25 40 47 -6 31 41 82 72
77 40 -6 53 -26 49 -79 -4 -48 -3 -49 30 -63 25 -11 40 -12 54 -5 33 18 109
-7 109 -35 0 -8 9 -15 20 -15 11 0 20 6 20 14 0 8 5 16 10 18 6 2 16 31 22 65
9 51 14 61 25 51 11 -9 17 -8 28 3 11 11 12 27 5 78 -5 35 -11 66 -14 69 -8 8
-46 -29 -46 -45 0 -30 -18 -9 -35 41 -10 30 -22 53 -26 50 -8 -5 -16 46 -18
120 -1 33 -8 54 -19 62 -16 13 -16 13 1 14 9 0 17 4 17 8 0 5 10 20 21 33 12
13 26 35 31 49 6 14 28 40 49 59 l39 33 0 -29 c0 -50 19 -90 48 -101 15 -6 59
-23 97 -38 39 -14 79 -34 90 -44 18 -16 115 -69 132 -72 5 0 24 -11 43 -23 19
-12 75 -41 123 -64 101 -49 103 -49 153 36 14 24 36 48 50 53 13 5 23 13 22
17 -1 5 3 19 9 33 6 14 14 33 17 43 3 9 14 20 23 24 10 3 25 12 35 20 9 9 18
10 22 5 3 -6 15 -8 25 -5 22 6 118 -21 175 -48 22 -10 47 -19 56 -19 9 0 36
-10 61 -21 24 -12 51 -22 60 -23 9 -1 39 -12 67 -26 36 -18 50 -30 46 -41 -2
-9 6 -31 19 -50 13 -19 22 -40 19 -47 -2 -7 19 -22 51 -37 48 -21 59 -22 86
-12 l31 11 0 1734 c0 1492 -2 1735 -14 1748 -13 12 -17 11 -30 -8 l-16 -22 0
22 c0 22 -4 23 -57 20 -37 -2 -63 -9 -70 -18 -11 -13 -12 -13 -13 2 0 14 -9
17 -48 15 -41 -2 -48 -5 -44 -20 2 -10 12 -23 21 -30 18 -14 26 -37 12 -37 -5
0 -16 7 -25 15 -18 18 -32 19 -40 3 -3 -7 -4 -1 -1 15 3 15 1 27 -5 27 -5 0
-10 7 -10 15 0 22 -17 18 -23 -5z m-916 -1504 c-2 -30 1 -51 9 -56 6 -4 16
-38 22 -76 5 -38 15 -87 21 -109 8 -25 12 -120 12 -250 0 -208 -9 -297 -41
-415 -9 -30 -18 -67 -21 -82 -4 -20 -9 -25 -22 -20 -13 5 -14 3 -3 -10 11 -13
9 -16 -12 -20 -14 -3 -25 -2 -24 1 1 17 -15 50 -23 45 -15 -9 -10 13 5 25 8 7
17 39 21 71 4 33 10 60 14 60 8 0 6 89 -3 118 -5 15 1 40 18 75 13 28 27 62
31 74 7 27 -14 63 -38 63 -10 0 -20 7 -22 15 -7 22 -14 37 -30 64 -15 27 -10
51 12 51 9 0 13 6 9 15 -3 10 3 17 19 21 23 6 55 52 55 80 0 22 -57 98 -89
119 -39 25 -34 40 13 39 39 -1 36 -9 40 87 0 17 -2 33 -6 36 -18 11 -7 34 15
31 20 -3 22 -8 18 -52z m-21 -1317 l0 -150 -35 -15 c-37 -15 -155 -20 -155 -5
0 4 26 44 57 87 31 43 69 110 85 147 30 73 37 87 44 87 2 0 4 -68 4 -151z"/>
<path d="M2300 3260 c-8 -5 -29 -10 -47 -10 -38 0 -65 -9 -58 -20 3 -4 -9 -13
-25 -19 -38 -13 -90 -49 -90 -62 0 -17 29 -9 54 16 35 35 49 31 67 -20 16 -43
16 -45 -2 -45 -37 0 -18 -18 26 -24 26 -4 45 -13 45 -20 0 -7 13 -25 30 -41
29 -27 31 -28 70 -15 23 7 52 24 66 37 14 13 30 21 35 17 6 -3 17 2 24 12 14
19 13 81 -1 118 -7 19 -78 56 -106 56 -10 0 -21 7 -24 15 -7 17 -41 20 -64 5z"/>
<path d="M1595 2340 c-3 -6 -5 -39 -3 -75 1 -35 -1 -67 -5 -71 -4 -4 -7 28 -7
71 0 115 -11 84 -17 -47 -3 -66 -11 -126 -19 -144 -8 -17 -15 -48 -14 -70 0
-21 -2 -72 -4 -111 -3 -40 -1 -75 4 -78 13 -8 41 6 33 18 -4 6 0 8 10 4 10 -3
17 -2 17 4 0 6 4 8 9 4 6 -3 10 94 11 250 0 140 -2 255 -4 255 -3 0 -8 -5 -11
-10z"/>
<path d="M4611 1298 c-12 -40 -25 -80 -30 -88 -5 -9 -14 -42 -22 -73 -7 -32
-16 -60 -21 -63 -4 -3 -8 -16 -8 -29 0 -19 8 -26 38 -34 76 -22 72 -33 72 174
0 102 -2 185 -4 185 -2 0 -14 -33 -25 -72z"/>
<path d="M4525 898 c7 -31 91 -383 103 -433 7 -30 10 19 11 198 1 182 -2 239
-11 242 -7 2 -35 6 -61 10 -46 6 -48 6 -42 -17z"/>
<path d="M1793 548 c-9 -12 -33 -224 -48 -437 -4 -46 -9 -90 -12 -97 -4 -11
20 -14 131 -14 124 0 136 2 136 18 0 10 5 23 11 29 8 8 8 13 0 17 -6 4 -11 19
-11 34 -1 41 -23 64 -54 56 -16 -4 -26 -2 -26 5 0 6 6 8 13 5 8 -3 20 2 27 11
10 12 10 15 -5 15 -22 0 -14 23 13 35 12 5 20 15 18 22 -3 7 0 15 6 19 7 5 5
11 -6 20 -16 11 -16 19 -6 68 6 31 15 54 20 51 4 -3 11 7 14 23 4 15 9 34 12
43 2 9 -3 24 -11 33 -15 15 -15 16 0 16 9 0 14 4 11 9 -3 4 -36 11 -73 15 -38
4 -86 9 -109 12 -27 4 -43 1 -51 -8z"/>
<path d="M2969 530 c-10 -10 -24 -42 -33 -71 -22 -76 -29 -84 -53 -68 -22 13
-30 74 -13 94 6 7 7 20 4 29 -5 13 -17 16 -58 14 -42 -2 -51 -7 -54 -23 -2
-11 -12 -29 -23 -40 -10 -11 -26 -45 -36 -74 -11 -37 -24 -57 -41 -64 -22 -10
-22 -12 -7 -23 15 -11 14 -13 -8 -10 -30 3 -76 54 -69 76 3 8 11 20 18 25 7 6
14 27 16 48 4 57 -16 67 -128 67 -52 0 -96 -4 -99 -10 -4 -6 -12 -7 -18 -3
-16 10 -108 12 -102 2 3 -4 -2 -9 -10 -13 -8 -3 -14 0 -12 6 3 18 -69 39 -97
28 -19 -7 -27 -20 -35 -62 -6 -29 -11 -69 -11 -88 0 -64 -5 -110 -11 -110 -3
0 -5 -20 -4 -45 0 -25 -3 -45 -7 -45 -4 0 -8 -7 -8 -16 0 -9 5 -12 12 -8 7 4
8 3 4 -4 -4 -7 -14 -12 -22 -12 -8 0 -14 -4 -14 -10 0 -9 14 -14 33 -11 4 0 7
-6 7 -15 0 -14 -3 -14 -15 -4 -24 20 -29 5 -14 -45 l13 -45 228 0 c222 0 228
1 228 20 0 11 11 30 25 42 21 18 24 27 18 62 -6 42 -19 59 -37 49 -5 -3 -6 -1
-2 5 4 7 18 12 31 12 31 0 49 -33 39 -68 -9 -32 -10 -41 -12 -64 -1 -10 -7
-18 -13 -18 -5 0 -7 4 -4 10 3 5 1 10 -5 10 -7 0 -9 -6 -6 -12 3 -7 9 -21 12
-30 6 -16 23 -18 174 -18 l167 0 11 25 c7 14 12 54 12 89 0 47 5 67 19 82 12
13 18 34 17 56 -1 42 52 112 75 97 9 -5 10 -9 2 -9 -6 0 -9 -9 -6 -20 6 -22
18 -26 28 -10 3 6 15 10 26 10 12 0 23 10 29 25 6 16 14 23 25 19 8 -3 15 -1
15 5 0 6 -7 11 -15 11 -13 0 -13 4 2 26 l17 26 8 -23 c6 -14 5 -33 -1 -46 -7
-15 -7 -23 -1 -23 6 0 10 -7 10 -15 0 -8 7 -15 15 -15 8 0 15 -7 15 -15 0 -20
-39 -19 -61 1 -10 9 -25 14 -34 11 -21 -9 -20 -47 2 -47 15 0 15 -1 -2 -13
-18 -14 -14 -37 7 -37 6 0 19 -7 29 -16 16 -15 19 -14 33 14 17 32 52 62 73
62 18 0 16 -29 -2 -36 -9 -4 -15 -11 -14 -18 3 -24 -1 -37 -10 -32 -5 4 -7 -2
-4 -12 4 -18 -46 -72 -68 -72 -5 0 -9 -8 -10 -17 0 -10 -3 -13 -5 -6 -3 7 0
21 6 32 6 12 7 21 3 21 -9 -1 -63 -103 -63 -120 0 -6 42 -10 114 -10 l113 0 6
68 c9 85 9 301 1 368 -9 68 -21 73 -259 104 -89 12 -87 12 -106 -10z"/>
<path d="M1518 426 c-16 -40 -28 -80 -28 -88 0 -9 -7 -21 -15 -28 -8 -7 -15
-18 -15 -25 0 -7 -8 -23 -19 -36 -10 -13 -20 -28 -21 -34 -5 -16 -24 -45 -31
-45 -3 0 -3 20 1 45 7 49 5 55 -22 55 -12 0 -18 -8 -19 -22 -1 -17 -2 -19 -6
-5 -2 9 -10 17 -17 17 -7 0 -19 18 -26 39 -12 37 -35 59 -48 46 -3 -3 0 -5 7
-5 7 0 9 -5 6 -10 -4 -6 3 -39 14 -74 11 -36 23 -97 26 -138 11 -130 -3 -118
140 -118 77 0 125 4 125 10 0 6 -7 10 -15 10 -16 0 -22 55 -6 64 5 3 12 30 16
61 3 30 11 57 16 60 5 4 9 24 9 45 0 21 4 41 9 44 12 8 6 135 -8 149 -9 9 -14
8 -21 -3 -8 -12 -10 -10 -10 8 0 13 4 21 9 17 13 -7 24 12 15 26 -4 8 -9 7
-15 -2 -6 -10 -9 -11 -9 -1 0 30 -17 6 -42 -62z"/>
</g>
</svg>
